<?xml version="1.0" encoding="UTF-8"?>
<svg id="Camada_1" data-name="Camada 1" xmlns="http://www.w3.org/2000/svg" xmlns:xlink="http://www.w3.org/1999/xlink" viewBox="0 0 1920 596.94">
  <defs>
    <style>
      .cls-1 {
        filter: url(#outer-glow-1);
      }

      .cls-2 {
        fill: #fff;
        stroke-width: 0px;
      }
    </style>
    <filter id="outer-glow-1" filterUnits="userSpaceOnUse">
      <feOffset dx="0" dy="0"/>
      <feGaussianBlur result="blur" stdDeviation="11"/>
      <feFlood flood-color="#fff" flood-opacity="1"/>
      <feComposite in2="blur" operator="in"/>
      <feComposite in="SourceGraphic"/>
    </filter>
  </defs>
  <g class="cls-1">
    <path class="cls-2" d="M367.69,330.71c1.34.67,1.8,1.79,1.35,3.38-.22.67-1.74,3.58-4.54,8.75-2.81,5.16-6.52,11.44-11.13,18.85-4.6,7.41-9.87,15.04-15.81,22.9-5.95,7.85-12.29,14.8-19.02,20.85v.33h-.33c-4.93,4.48-10.15,8.19-15.65,11.1s-10.95,4.38-16.33,4.38h-3.38c-5.38-.67-9.75-3.7-13.13-9.08-5.16-7.85-7.91-20.63-8.25-38.35-.33-17.73,1.19-38.17,4.56-61.29-4.5.68-8.94,1.31-13.31,1.88-4.38.56-8.81,1.06-13.29,1.5l-8.42,1c-11.22,20.66-21.43,37.38-30.63,50.17-10.56,15.04-19.82,25.15-27.79,30.31-7.96,5.15-15.53,7.73-22.71,7.73-.91,0-1.81-.06-2.71-.17-.89-.11-1.9-.17-3.02-.17-11.45-1.35-18.96-6.84-22.54-16.5-2.03-5.83-2.15-11.94-.35-18.33,1.8-6.4,5.17-12.41,10.1-18.02,8.98-9.65,18.58-17.05,28.79-22.21,10.21-5.17,21.03-9.04,32.48-11.63,11.44-2.58,23.23-4.55,35.35-5.9,9.65-17.72,20.31-38.53,31.98-62.44,11.67-23.9,24.46-51.22,38.38-81.96.89-3.15,1.78-6.3,2.69-9.44.9-3.14,1.8-6.17,2.69-9.08.68-3.14,2.59-5.05,5.73-5.73,3.36-.67,6.05.01,8.08,2.02l2.35,2.35c7.18,6.74,9.31,15.04,6.4,24.92-3.14,10.32-6.56,22.49-10.27,36.52-3.71,14.03-7.42,28.95-11.13,44.77-3.7,15.82-7.11,31.58-10.25,47.29,7.4-2.01,14.69-4.59,21.88-7.73,7.18-3.15,14.14-6.97,20.88-11.46,1.57-.89,2.69-.66,3.38.69,1.34,1.33,1.11,2.45-.69,3.35-7.41,4.95-14.98,9.1-22.73,12.46-7.74,3.36-15.64,6.06-23.71,8.08l-1.02,7.06c-3.36,19.53-5.44,35.3-6.23,47.31-.78,12-.78,21.26,0,27.77.79,6.5,1.92,11.04,3.38,13.63s2.86,4.09,4.21,4.54c3.36,1.34,6.67,1.51,9.92.5,3.26-1.02,5.96-2.25,8.08-3.71,2.14-1.46,3.21-2.19,3.21-2.19.22,0,.33-.11.33-.33,6.5-6.05,12.67-12.95,18.5-20.69,5.84-7.75,11.01-15.32,15.5-22.73,4.48-7.4,8.07-13.51,10.77-18.33,2.69-4.83,4.04-7.36,4.04-7.58.67-1.34,1.78-1.8,3.35-1.35ZM196.35,364.38c8.53-11.9,18.06-27.5,28.6-46.79-17.06,2.24-33.22,5.77-48.48,10.6-15.25,4.82-29.05,13.85-41.4,27.1-4.27,4.93-7.18,10.2-8.75,15.81-1.57,5.61-1.57,10.77,0,15.48,2.92,7.64,9.09,12.02,18.52,13.13,5.15.68,10.19.29,15.13-1.17,4.94-1.46,10.39-4.82,16.33-10.1,5.96-5.28,12.64-13.3,20.04-24.06ZM266.71,307.15c2.47-16.83,5.67-34.56,9.58-53.19,3.93-18.63,8.36-37.25,13.31-55.88-10.56,23.11-20.49,44.16-29.81,63.13-9.31,18.96-17.89,35.73-25.73,50.31l5.04-.67c4.48-.46,9.03-.96,13.63-1.52,4.61-.55,9.27-1.28,13.98-2.19Z"/>
    <path class="cls-2" d="M457.23,331.38c1.34.91,1.69,2.03,1.02,3.38-.24.67-1.81,3.75-4.73,9.25s-6.68,12.24-11.27,20.21c-4.6,7.96-9.65,15.98-15.15,24.06s-11.17,14.81-17,20.19c-3.82,3.59-7.3,6.29-10.44,8.08-2.7,1.34-5.95,2.02-9.77,2.02-2.92,0-6.06-.56-9.42-1.69-2.25-.89-4.72-2.46-7.42-4.71-2.68-2.24-4.93-5.6-6.73-10.1-6.5-18.17-6.61-48.01-.33-89.54,4.48-29.39,10.04-55.92,16.67-79.6,6.63-23.68,13.92-43.15,21.88-58.4,7.97-15.26,16.11-25.14,24.42-29.63,6.28-3.14,12.22-3.36,17.83-.69,5.17,2.47,8.19,6.85,9.08,13.15l.35.33c1.34,6.96.84,15.77-1.52,26.44-2.36,10.66-5.96,22.16-10.79,34.5-4.82,12.33-10.37,24.68-16.65,37.02-6.28,12.33-12.68,23.67-19.19,34-6.52,10.32-12.69,18.62-18.52,24.9,0,.24-.11.35-.33.35-2.7,17.72-4.33,32.31-4.9,43.75-.56,11.45-.33,20.54.69,27.27,1.01,6.74,2.36,11.68,4.04,14.81,1.68,3.14,3.3,5.27,4.88,6.4,2.92,1.57,5.78,1.57,8.58,0,2.8-1.57,4.21-2.35,4.21-2.35h.35c5.38-5.39,10.81-12.06,16.31-20.02,5.5-7.97,10.55-15.94,15.15-23.9,4.61-7.97,8.32-14.65,11.13-20.04,2.8-5.39,4.21-8.08,4.21-8.08.89-1.57,2.01-2.02,3.35-1.35ZM392.93,294.02l-2.02,11.44c5.39-6.96,11.11-15.43,17.17-25.42,6.05-9.98,11.89-20.7,17.5-32.15,5.61-11.44,10.55-22.83,14.81-34.17,4.26-11.33,7.4-21.82,9.42-31.46,2.03-9.65,2.48-17.51,1.35-23.58-.45-1.79-1.68-2.57-3.69-2.35-2.7,0-6.18,2.14-10.44,6.4s-8.87,11.51-13.81,21.73c-4.93,10.21-10.04,24.24-15.31,42.08-5.28,17.83-10.27,40.33-14.98,67.48Z"/>
    <path class="cls-2" d="M557.54,332.07c1.13.89,1.34,2.12.67,3.69-13.46,17.74-25.07,31.32-34.83,40.75-9.77,9.42-19.02,15.7-27.77,18.83,0,.22-.06.33-.17.33h-.17c-5.39,1.81-10.44,2.71-15.15,2.71-3.6,0-7.81-1.11-12.65-3.35-4.82-2.25-9.14-6.07-12.94-11.46-2.92-4.48-5.1-10.77-6.56-18.85s.28-18.52,5.21-31.31c8.3-21.32,17.51-36.3,27.6-44.94,10.09-8.64,18.96-12.96,26.58-12.96s13.14,3.26,17.17,9.77c.46.67.85,1.34,1.19,2.02.33.67.61,1.56.83,2.69.46,1.35.69,2.47.69,3.35.44,2.25.38,4.89-.19,7.92-.56,3.03-1.73,6.45-3.52,10.27-4.04,7.41-9.27,13.24-15.67,17.5-6.39,4.27-12.45,7.3-18.17,9.1-5.72,1.79-9.7,2.91-11.94,3.35-3.38,9.66-4.95,18.58-4.73,26.77.22,8.18,2.13,14.41,5.73,18.67,3.82,4.5,8.86,5.85,15.15,4.04h.33c7.18-2.69,15.42-8.36,24.73-17,9.32-8.64,21.05-22.38,35.19-41.23,1.13-1.13,2.25-1.34,3.38-.67ZM480.46,334.75l-.69,1c3.15-.67,7.19-1.95,12.13-3.85,4.94-1.92,9.94-4.72,14.98-8.42,5.05-3.71,9.15-8.48,12.29-14.31,3.58-6.73,4.48-12.69,2.69-17.85l-2.02-2.69c-1.79-1.13-3.81-1.23-6.06-.33-3.58,1.13-8.24,4.89-13.96,11.29-5.72,6.39-12.18,18.11-19.35,35.17ZM517.48,228.04l3.04,3.71c1.34,1.57,1.79,3.03,1.33,4.38.22.89-.22,1.68-1.33,2.35l-31.31,19.52c-1.35.89-3.03.33-5.04-1.69v-.33l-1.02-1.02c-2.25-3.14-2.25-5.49,0-7.06l26.6-22.21c2.23-1.8,4.81-1.02,7.73,2.35Z"/>
    <path class="cls-2" d="M722.81,331.38c1.34.91,1.57,2.03.69,3.38-8.53,15.71-16.27,26.59-23.23,32.65v.33c-6.29,6.96-13.47,10.44-21.54,10.44-1.57,0-2.7-.11-3.38-.33-2.24-.44-4.88-1.51-7.92-3.19-3.03-1.69-5.44-4.9-7.23-9.6-2.24-5.17-3.3-11.73-3.19-19.69.11-7.97.9-16.1,2.35-24.4,1.46-8.3,3.08-15.82,4.88-22.56,1.79-6.73,3.14-11.45,4.04-14.15,1.34-3.36,1.96-5.99,1.85-7.9-.11-1.92-.51-3.21-1.19-3.88-.22-.46-.5-.63-.83-.52-.33.11-.62.17-.85.17l-.33.35c-2.92,1.57-6.51,4.54-10.77,8.92-4.27,4.38-8.53,9.43-12.79,15.15-4.27,5.72-8.02,11.73-11.27,18.02-3.25,6.28-5.44,12.33-6.56,18.17,0,.22-.06.39-.17.5l-.17.17c-.24,4.27-.24,8.76,0,13.48,0,2.24-.91,4.48-2.71,6.73-.89.89-2.01,1.62-3.35,2.19-1.35.56-2.7.72-4.04.5-3.82,0-6.97-1.23-9.44-3.71-2.46-2.92-3.69-6.05-3.69-9.42.22-7.86,1.11-16.22,2.69-25.08,1.57-8.86,3.25-16.99,5.04-24.4,1.8-7.42,3.15-12.58,4.04-15.5.9-2.69,1.24-4.65,1.02-5.88-.22-1.23-.56-1.96-1.02-2.19-.67-.68-1.23-.46-1.69.67h-.33c-4.71,5.16-9.36,11.99-13.96,20.52-4.6,8.53-8.81,17.56-12.63,27.1-3.82,9.54-6.97,18.64-9.44,27.27-2.46,8.64-3.92,15.66-4.38,21.04-.22,3.14-.33,6.45-.33,9.94v10.25c0,2.47-.9,4.6-2.69,6.4-1.57,1.13-3.25,1.69-5.04,1.69-.68,0-1.24-.11-1.69-.33-3.14-.67-5.72-2.29-7.75-4.88-2.01-2.58-3.13-5.44-3.35-8.58-.23-13.01.49-26.92,2.19-41.73,1.68-14.82,3.98-29.01,6.9-42.58,2.92-13.58,5.83-24.76,8.75-33.52.67-2.23,2.13-3.69,4.38-4.38,2.47-.67,4.49-.32,6.06,1.02l4.71,3.35c2.47,1.57,4.04,3.76,4.71,6.56.68,2.81.46,5.56-.67,8.25-3.36,8.08-6.28,16.95-8.75,26.6-2.47,9.66-4.27,19.97-5.4,30.96,2.92-8.75,6.34-17.67,10.27-26.75,3.93-9.09,8.19-17.57,12.79-25.42,4.59-7.86,9.15-13.92,13.65-18.19,3.36-3.36,7.51-4.36,12.44-3.02,6.29,2.02,10,5.39,11.13,10.1.89,3.58.94,7.34.15,11.27-.78,3.93-1.73,8.47-2.85,13.63-.45,2.25-1.01,4.72-1.69,7.42-.67,2.7-1.22,5.5-1.67,8.42,2.01-3.82,4.31-7.8,6.9-11.96,2.58-4.15,5.44-8.25,8.58-12.29,1.57-1.79,3.98-4.59,7.23-8.4,3.26-3.82,6.85-7.24,10.77-10.27,3.93-3.04,7.35-4.44,10.27-4.21,6.07.22,10.67,2.19,13.81,5.9,3.14,3.7,5.04,7.11,5.71,10.25.23,1.13.01,2.93-.67,5.4-.67,2.46-1.68,5.94-3.02,10.44-1.57,5.38-3.2,11.49-4.9,18.33-1.68,6.85-2.92,13.7-3.71,20.54-.78,6.85-.49,13.08.85,18.69.68,2.7,1.69,5.39,3.02,8.08,1.34,2.68,3.15,4.25,5.4,4.71.9.22,2.03.06,3.38-.5,1.34-.57,3.14-1.75,5.38-3.54,0-.22.05-.33.17-.33h.17c2.69-2.47,5.89-6.17,9.58-11.1,3.71-4.94,8.03-11.79,12.98-20.54.9-1.34,2.02-1.69,3.35-1.02Z"/>
    <path class="cls-2" d="M989.09,331.38c1.57.91,1.9,2.03,1,3.38,0,0-1.02,1.74-3.04,5.23-2.02,3.47-4.7,7.85-8.06,13.13-3.36,5.27-7.18,10.81-11.44,16.65-9.43,13.25-18.07,22.56-25.92,27.94,0,.24-.12.35-.35.35,0,0-.22.22-.67.67-4.71,3.36-9.08,5.04-13.13,5.04-.91,0-1.47-.11-1.69-.33-7.41-.67-13.13-3.92-17.17-9.75-6.06-8.76-8.3-24.14-6.73-46.13-3.14,5.61-6.68,10.77-10.6,15.48-3.93,4.71-8.7,8.75-14.31,12.13-4.71,2.92-10.09,4.38-16.15,4.38-4.5,0-8.66-1.01-12.46-3.04-2.92-1.79-5.67-4.76-8.25-8.92-2.58-4.15-3.76-10.38-3.54-18.67.46-13.47,3.32-25.42,8.58-35.85,5.28-10.44,11.56-19.08,18.85-25.92,7.29-6.84,13.96-11.4,20.02-13.65,7.86-3.14,14.71-2.8,20.54,1.02,1.79.89,3.3,2.06,4.54,3.52,1.23,1.46,2.3,3.09,3.21,4.9l1-4.04c5.61-24.01,12.06-45.55,19.35-64.63,7.29-19.08,15.2-34.96,23.73-47.65,8.53-12.68,17.17-21.26,25.94-25.75,7.4-3.59,14.69-4.05,21.88-1.35,5.17,2.47,8.19,6.85,9.08,13.13,1.13,6.52.4,14.77-2.19,24.75-2.58,9.99-6.52,20.88-11.79,32.67-5.27,11.78-11.49,23.68-18.67,35.69-7.18,12-14.87,23.45-23.06,34.33-8.2,10.88-16.33,20.35-24.4,28.44-3.82,17.72-6.18,32.14-7.08,43.25-.89,11.11-.95,19.64-.17,25.58.79,5.95,1.86,10.16,3.21,12.63,1.34,2.47,2.35,3.93,3.02,4.38,1.13.89,2.24,1.17,3.35.83,1.13-.33,2.14-.72,3.04-1.17h.17c.11,0,.17-.11.17-.33,4.26-3.15,8.69-7.36,13.29-12.63,4.61-5.28,9.1-10.94,13.48-17,4.38-6.07,8.3-11.91,11.77-17.52,3.48-5.61,6.23-10.32,8.25-14.13.9-1.57,2.03-1.91,3.38-1.02ZM942.96,268.11l-7.73,30.96c9.19-9.88,18-20.98,26.42-33.31,8.42-12.34,16.1-24.92,23.06-37.71s12.57-24.91,16.83-36.35c4.26-11.44,6.73-21.21,7.4-29.29-.22-.67-.62-2.34-1.19-5.04-.56-2.69-2.07-4.38-4.54-5.06-2.24-.89-4.81-.55-7.73,1.02-2.25,1.35-5.18,3.93-8.77,7.75-3.58,3.81-7.62,9.92-12.1,18.33-4.49,8.42-9.37,19.75-14.65,34-5.28,14.25-10.95,32.49-17,54.71ZM902.9,334.75c.9-6.29,1.97-12.97,3.21-20.04,1.23-7.07,2.64-14.75,4.21-23.04,0-.46-.23-1.36-.69-2.71-.22-.44-.68-1-1.35-1.67-.67-.68-1.79-1.02-3.35-1.02-.67,0-3.19,1.24-7.56,3.71-4.38,2.47-9.31,6.74-14.81,12.79-5.5,6.06-10.49,14.7-14.98,25.92-4.27,10.54-6.29,19.35-6.06,26.42.22,7.07,1.79,11.95,4.71,14.65,1.34,1.35,2.8,1.97,4.38,1.85,1.57-.11,2.92-.39,4.04-.83,6.51-4.04,11.96-9.2,16.33-15.48,4.38-6.29,8.35-13.14,11.94-20.54Z"/>
    <path class="cls-2" d="M1111.27,332.4c.9,1.35.68,2.47-.67,3.35-.22.24-3.08,1.76-8.58,4.56-5.5,2.79-12.18,5.09-20.02,6.9-2.47.45-4.95.84-7.42,1.19-2.47.33-4.83.5-7.06.5s-4.39-.17-6.42-.5c-2.02-.34-4.03-.63-6.04-.85-2.92,7.63-6.85,14.75-11.79,21.38-4.93,6.63-10.77,11.51-17.5,14.65-4.04,2.02-8.2,3.02-12.46,3.02-6.72,0-12.67-2.13-17.83-6.4-4.49-3.8-8.14-9.75-10.94-17.83s-2.64-17.84.5-29.29c3.82-13.23,8.65-24.45,14.48-33.65,5.83-9.21,12.23-15.61,19.19-19.21,7.18-3.58,14.58-4.03,22.21-1.33,12.34,4.49,19.08,15.7,20.21,33.65.22,4.72-.01,9.61-.69,14.67-.67,5.04-1.9,10.15-3.69,15.31,6.05,1.33,12.11,1.61,18.17.83,6.05-.79,11.55-2.14,16.48-4.04,4.94-1.9,8.93-3.64,11.96-5.21l4.56-2.38c.44-.44,1.05-.55,1.83-.33.79.22,1.3.56,1.52,1.02ZM1030.81,374.48c4.26-3.38,8.02-7.58,11.27-12.63,3.26-5.05,6.02-10.39,8.27-16-.46,0-.8-.11-1.02-.33-6.96-2.47-13.24-7.07-18.85-13.81-4.27-4.93-7.13-9.53-8.58-13.79-1.46-4.26-2.3-7.96-2.52-11.1-5.17,6.72-9.09,15.25-11.77,25.58-3.16,11.89-3.67,21.43-1.54,28.6,2.14,7.18,5.01,12.01,8.6,14.48,5.17,3.6,10.55,3.27,16.15-1ZM1052.02,341.15c1.58-4.71,2.76-9.53,3.54-14.46.79-4.94.96-9.55.5-13.81,0-2.25-.28-4.83-.83-7.75-.56-2.92-1.51-5.83-2.85-8.75-2.03-4.94-5.51-7.07-10.44-6.4-.91,0-1.69.11-2.35.33-.68,1.79-1.36,4.82-2.04,9.08-.67,4.27-.95,8.98-.83,14.15.11,5.17,1.07,10.1,2.88,14.81,2.46,6.28,6.27,10.43,11.44,12.46.22.22.55.33,1,.33Z"/>
    <path class="cls-2" d="M1349.6,332.4c.9,1.35.68,2.47-.67,3.35-.22.24-3.08,1.76-8.58,4.56-5.5,2.79-12.18,5.09-20.02,6.9-2.47.45-4.95.84-7.42,1.19-2.47.33-4.83.5-7.06.5s-4.39-.17-6.42-.5c-2.02-.34-4.03-.63-6.04-.85-2.92,7.63-6.85,14.75-11.79,21.38-4.93,6.63-10.77,11.51-17.5,14.65-4.04,2.02-8.2,3.02-12.46,3.02-6.72,0-12.67-2.13-17.83-6.4-4.49-3.8-8.14-9.75-10.94-17.83s-2.64-17.84.5-29.29c3.82-13.23,8.65-24.45,14.48-33.65,5.83-9.21,12.23-15.61,19.19-19.21,7.18-3.58,14.58-4.03,22.21-1.33,12.34,4.49,19.08,15.7,20.21,33.65.22,4.72-.01,9.61-.69,14.67-.67,5.04-1.9,10.15-3.69,15.31,6.05,1.33,12.11,1.61,18.17.83,6.05-.79,11.55-2.14,16.48-4.04,4.94-1.9,8.93-3.64,11.96-5.21l4.56-2.38c.44-.44,1.05-.55,1.83-.33.79.22,1.3.56,1.52,1.02ZM1269.14,374.48c4.26-3.38,8.02-7.58,11.27-12.63,3.26-5.05,6.02-10.39,8.27-16-.46,0-.8-.11-1.02-.33-6.96-2.47-13.24-7.07-18.85-13.81-4.27-4.93-7.13-9.53-8.58-13.79-1.46-4.26-2.3-7.96-2.52-11.1-5.17,6.72-9.09,15.25-11.77,25.58-3.16,11.89-3.67,21.43-1.54,28.6,2.14,7.18,5.01,12.01,8.6,14.48,5.17,3.6,10.55,3.27,16.15-1ZM1290.35,341.15c1.58-4.71,2.76-9.53,3.54-14.46.79-4.94.96-9.55.5-13.81,0-2.25-.28-4.83-.83-7.75-.56-2.92-1.51-5.83-2.85-8.75-2.03-4.94-5.51-7.07-10.44-6.4-.91,0-1.69.11-2.35.33-.68,1.79-1.36,4.82-2.04,9.08-.67,4.27-.95,8.98-.83,14.15.11,5.17,1.07,10.1,2.88,14.81,2.46,6.28,6.27,10.43,11.44,12.46.22.22.55.33,1,.33Z"/>
    <path class="cls-2" d="M1436.11,331.38c1.34.91,1.69,2.03,1.02,3.38-.24.67-1.81,3.75-4.73,9.25s-6.68,12.24-11.27,20.21c-4.6,7.96-9.65,15.98-15.15,24.06s-11.17,14.81-17,20.19c-3.82,3.59-7.3,6.29-10.44,8.08-2.7,1.34-5.95,2.02-9.77,2.02-2.92,0-6.06-.56-9.42-1.69-2.25-.89-4.72-2.46-7.42-4.71-2.68-2.24-4.93-5.6-6.73-10.1-6.5-18.17-6.61-48.01-.33-89.54,4.48-29.39,10.04-55.92,16.67-79.6,6.63-23.68,13.92-43.15,21.88-58.4,7.97-15.26,16.11-25.14,24.42-29.63,6.28-3.14,12.22-3.36,17.83-.69,5.17,2.47,8.19,6.85,9.08,13.15l.35.33c1.34,6.96.84,15.77-1.52,26.44-2.36,10.66-5.96,22.16-10.79,34.5-4.82,12.33-10.37,24.68-16.65,37.02-6.28,12.33-12.68,23.67-19.19,34-6.52,10.32-12.69,18.62-18.52,24.9,0,.24-.11.35-.33.35-2.7,17.72-4.33,32.31-4.9,43.75-.56,11.45-.33,20.54.69,27.27,1.01,6.74,2.36,11.68,4.04,14.81,1.68,3.14,3.3,5.27,4.88,6.4,2.92,1.57,5.78,1.57,8.58,0,2.8-1.57,4.21-2.35,4.21-2.35h.35c5.38-5.39,10.81-12.06,16.31-20.02,5.5-7.97,10.55-15.94,15.15-23.9,4.61-7.97,8.32-14.65,11.13-20.04,2.8-5.39,4.21-8.08,4.21-8.08.89-1.57,2.01-2.02,3.35-1.35ZM1371.82,294.02l-2.02,11.44c5.39-6.96,11.11-15.43,17.17-25.42,6.05-9.98,11.89-20.7,17.5-32.15,5.61-11.44,10.55-22.83,14.81-34.17,4.26-11.33,7.4-21.82,9.42-31.46,2.03-9.65,2.48-17.51,1.35-23.58-.45-1.79-1.68-2.57-3.69-2.35-2.7,0-6.18,2.14-10.44,6.4s-8.87,11.51-13.81,21.73c-4.93,10.21-10.04,24.24-15.31,42.08-5.28,17.83-10.27,40.33-14.98,67.48Z"/>
    <path class="cls-2" d="M1575.8,331.38c1.58.68,1.92,1.92,1.02,3.71-.68,1.35-2.82,4.89-6.42,10.6-3.58,5.72-7.85,12.06-12.79,19.02-4.93,6.96-9.86,12.79-14.79,17.5l-3.38,3.38c-2.02,2.02-4.66,4.04-7.92,6.06-3.25,2.02-6.67,3.02-10.25,3.02-2.03,0-3.83-.45-5.4-1.35-2.46-1.11-4.98-3.13-7.56-6.04-2.58-2.93-4.22-6.53-4.9-10.79-.67-4.71-.27-10.03,1.19-15.98,1.46-5.94,3.76-13.41,6.9-22.4,8.98-24.9,11.34-38.92,7.08-42.06-1.57-1.13-3.76-1.01-6.56.33-2.81,1.35-4.77,2.58-5.9,3.71,0,.22-.06.33-.17.33s-.17.11-.17.33c-6.07,7.41-12.25,16.33-18.54,26.77-6.28,10.43-12.11,21.43-17.5,32.98-5.38,11.56-9.92,22.78-13.63,33.67-3.7,10.88-6.1,20.57-7.23,29.1.44,5.84.89,11.29,1.33,16.33.46,5.05,1.13,9.59,2.02,13.63.68,2.47-.1,4.49-2.35,6.06-.89.68-1.9,1.02-3.02,1.02-.45,0-1.34-.23-2.69-.69l-7.42-5.04c-5.83-3.82-8.97-9.43-9.42-16.83-.46-6.74-.74-17.06-.85-30.98-.11-13.9.74-30.5,2.54-49.79,1.79-19.3,5.15-40.29,10.08-62.96,6.07-26.93,12.24-49.54,18.52-67.83,6.28-18.29,12.28-33.1,18-44.44,5.72-11.33,10.88-20.03,15.48-26.08,4.61-6.05,8.26-10.21,10.96-12.46,3.36-2.92,6.72-4.94,10.08-6.06,3.38-1.13,7.19-.45,11.46,2.02,3.59,1.79,6.06,6.06,7.4,12.79.46,1.13.91,3.15,1.35,6.06v.67c.44,5.39.21,12.8-.69,22.23-.89,9.42-3.8,21.31-8.73,35.67-12.13,37.03-35.02,80.91-68.69,131.63-.22.68-.9,1.02-2.02,1.02-1.11,8.97-2.01,17.89-2.69,26.75-.67,8.86-1,17.45-1,25.75,3.36-11.67,7.96-23.95,13.79-36.85,5.83-12.9,12.28-25.35,19.35-37.35,7.07-12.01,13.97-22.17,20.71-30.48,5.17-6.5,10.1-11.44,14.81-14.81,5.17-3.8,9.65-5.38,13.46-4.71,3.59.67,6.63,2.58,9.1,5.73,4.93,7.18,5.48,20.65,1.67,40.4-.89,5.16-2.18,10.43-3.88,15.81-1.68,5.39-3.31,10.44-4.88,15.15-1.13,4.04-2.36,8.31-3.71,12.79-1.33,4.49-2.23,8.31-2.69,11.46-.45,3.14-.1,5.04,1.02,5.71.44.46,1.34.57,2.69.33,2.47-.67,5.5-2.57,9.08-5.71v-.33h.17c.11,0,.17-.11.17-.35,4.04-3.8,8.25-8.63,12.63-14.46s8.35-11.67,11.94-17.5c3.59-5.84,6.41-10.56,8.44-14.15.9-1.57,2.02-1.91,3.35-1.02ZM1460.67,302.11c-1.57,6.28-2.92,12.68-4.04,19.19-1.11,6.5-2.23,13.01-3.35,19.52,17.96-27.39,32.09-51.4,42.42-72.04,10.32-20.65,17.83-38.32,22.54-53.02,4.72-14.69,7.58-26.69,8.58-36,1.01-9.32,1.19-16.34.52-21.06-.22-1.13-.73-2.86-1.52-5.21-.79-2.36-2.42-3.65-4.88-3.88-.46,0-1.42.51-2.88,1.52-1.46,1-3.43,3.41-5.9,7.23-2.46,3.82-5.54,9.66-9.25,17.52-3.7,7.85-8.13,18.73-13.29,32.65-3.82,10.54-7.64,21.65-11.46,33.31-3.81,11.67-7.22,22.78-10.25,33.33-3.03,10.54-5.45,19.52-7.25,26.94Z"/>
    <path class="cls-2" d="M1693.95,331.38c1.13.22,1.91,1.24,2.35,3.04,0,0-.56,2.3-1.69,6.9-1.11,4.6-2.57,10.38-4.38,17.33-1.79,6.96-3.92,14.25-6.38,21.88-10.33,30.08-20.66,45.13-30.98,45.13h-1.35c-5.61-.68-10.1-3.94-13.46-9.77-2.92-5.17-4.99-11.45-6.23-18.85-1.24-7.4-1.85-15.08-1.85-23.04s.23-15.21.69-21.73c-1.57,4.27-3.31,8.03-5.23,11.29-1.91,3.25-3.75,6.22-5.54,8.92,0,.22-.06.33-.19.33-.11,0-.17.11-.17.33-.67.22-1.11.68-1.33,1.35-4.04,5.6-8.14,9.58-12.29,11.94-4.16,2.36-8.14,3.54-11.96,3.54-1.57,0-2.8-.11-3.69-.33-1.35-.46-3.54-1.36-6.58-2.71-3.03-1.34-5.89-4.03-8.56-8.06-2.25-4.04-4.05-10.1-5.4-18.19-1.34-8.08-.34-19.07,3.02-32.98,3.15-11.22,6.92-20.09,11.29-26.6,4.38-6.51,8.8-11.45,13.29-14.81,4.48-3.36,8.3-5.6,11.44-6.73,7.18-2.69,13.46-2.92,18.85-.67,6.51,3.14,10.78,8.86,12.79,17.17v.67c2.03-7.4,4.27-14.24,6.73-20.52,2.47-6.29,4.83-11.68,7.08-16.17,1.57-2.03,3.47-3.15,5.71-3.38,2.69,0,4.94.9,6.75,2.69l5.04,4.73c2.69,2.24,4.43,4.93,5.21,8.08.79,3.14.63,6.06-.5,8.75-4.93,11.67-9.36,24.85-13.29,39.56-3.93,14.7-6.79,29.33-8.58,43.92-2.25,16.38-2.87,28.22-1.85,35.52,1.01,7.29,2.08,11.27,3.21,11.94,2.46,1.34,4.64,1.18,6.54-.5,1.92-1.68,3.32-2.97,4.23-3.88,3.36-6.06,6.61-13.4,9.75-22.04,3.14-8.64,5.94-17.61,8.42-26.94,2.47-9.32,4.49-17.9,6.06-25.75.44-1.34,1.45-1.8,3.02-1.35ZM1637.41,310.17c0-4.71-.56-8.97-1.69-12.79-.67-1.79-1.79-3.53-3.38-5.21-1.57-1.68-3.25-2.63-5.04-2.85-1.57-.23-4.16.6-7.75,2.52-3.58,1.91-7.29,5.89-11.1,11.96-3.81,6.06-6.95,15.14-9.42,27.25-2.7,12.79-3.99,22.28-3.88,28.46.11,6.17.9,10.21,2.35,12.13,1.46,1.91,2.64,3.19,3.54,3.85,1.34.91,3.42,1.08,6.23.52,2.8-.57,5.55-2.65,8.25-6.25,6.28-8.97,12.33-21.98,18.17-39.04.44-3.59.94-7.07,1.5-10.44.57-3.36,1.3-6.73,2.21-10.1Z"/>
    <path class="cls-2" d="M1798.64,331.38c1.34.68,1.69,1.81,1.02,3.38-6.06,12.79-12.68,24.29-19.88,34.5-7.18,10.21-14.36,18.46-21.54,24.75-.22.22-.45.45-.67.67-.22.22-.56.56-1,1-8.53,7.42-15.94,11.13-22.23,11.13h-.33c-4.93,0-8.97-2.14-12.13-6.4-2.7-4.26-4.1-9.76-4.21-16.5-.11-6.73.67-14.03,2.35-21.88,1.69-7.86,4-15.38,6.92-22.56-2.92.45-6.74.79-11.46,1.02-4.71.22-9.48-.05-14.31-.83-4.82-.79-8.58-2.65-11.27-5.56-4.93-5.17-7-11.11-6.21-17.85.78-6.73,3.64-15.26,8.56-25.58.9-2.69,2.92-4.38,6.06-5.04,3.15-.68,5.73,0,7.75,2.02l3.02,2.69c2.47,2.02,4.04,4.54,4.71,7.58.68,3.03.34,6-1,8.92-1.79,4.04-3.54,8.47-5.23,13.29-1.68,4.82-1.85,8.35-.5,10.6,1.13,1.79,3.59,2.69,7.42,2.69,4.48.22,9.59-.56,15.31-2.35,5.72-1.79,10.71-3.58,14.98-5.38,2.69-1.13,5.17-.57,7.42,1.67,2.23,1.81,2.79,4.28,1.67,7.42-2.7,6.96-5.05,14.43-7.06,22.4-2.02,7.96-3.36,15.2-4.04,21.71-.67,6.5-.33,11.21,1.02,14.13.67,1.13,1.22,1.69,1.67,1.69,1.13.22,2.3.11,3.54-.33,1.23-.44,2.42-1.01,3.54-1.69,6.5-5.61,13.56-13.52,21.19-23.73,7.64-10.21,14.82-22.27,21.56-36.19.89-1.57,2.01-2.02,3.35-1.35Z"/>
  </g>
</svg>